<?xml version="1.0" encoding="UTF-8"?>
<svg width="256px" height="256px" viewBox="0 0 256 256" xmlns="http://www.w3.org/2000/svg" xmlns:xlink="http://www.w3.org/1999/xlink" version="1.1">
 <!-- Generated by Pixelmator Pro 1.2.4 -->
 <path id="path" d="M180.075 35.604 C164.267 35.92 146.972 39.241 135.257 50.678 128.185 57.889 123.638 70.484 130.297 79.39 137.692 88.582 150.31 90.316 161.347 91.298 167.367 92.023 170.956 98.428 168.834 104.022 166.431 112.895 159.171 118.914 154.47 126.493 136.738 152.481 122.756 182.374 121.138 214.241 120.856 219.172 119.987 221.661 126.833 220.975 138.058 220.178 149.19 218.024 159.896 214.556 157.763 189.19 164.65 162.366 182.016 143.299 194.094 128.476 204.438 111.845 210.221 93.498 214.043 78.936 216.137 62.099 208.261 48.491 202.597 38.779 190.804 34.972 180.075 35.604 Z" fill="#98bf06" fill-opacity="1" stroke="none"/>
 <path id="path-1" d="M170.315 52.674 C167.51 52.8 164.936 53.743 163.626 55.161 163.04 55.796 162.802 56.302 162.76 57.064 162.717 57.842 162.874 58.323 163.344 58.948 164.267 60.175 166.042 61.017 168.469 61.359 169.48 61.502 171.214 61.497 172.256 61.359 173.154 61.241 174.656 60.895 175.101 60.7 176.465 60.102 176.972 59.798 177.607 59.193 178.42 58.417 178.73 57.694 178.681 56.743 178.641 55.976 178.384 55.429 177.738 54.784 176.47 53.515 174.299 52.782 171.54 52.674 171.133 52.658 170.716 52.656 170.315 52.674 Z" fill="#19171a" fill-opacity="1" stroke="none"/>
 <path id="path-2" d="M129.788 54.577 C97.592 57.378 64.168 68.118 41.883 92.629 25.807 110.259 16.48 133.819 15.781 157.637 16.69 160.01 19.456 150.438 21.379 148.277 36.878 119.576 65.415 99.227 96.806 91.336 109.735 87.878 123.127 86.278 136.495 86.305 125.846 83.334 122.277 70.054 126.729 60.774 127.379 58.608 129.233 56.432 129.788 54.577 Z" fill="#19171a" fill-opacity="1" stroke="none"/>
 <path id="path-3" d="M201.742 39.297 C205.582 42.393 210.093 46.271 212.168 51.292 218.345 64.855 216.174 80.576 212.173 94.44 205.581 114.29 193.828 132.032 180.263 147.765 166.055 166.295 160.408 190.557 162.496 213.633 196.66 202.018 226.368 174.664 236.391 139.452 245.095 110.128 238.642 77.128 220.236 52.792 216.153 46.313 210.594 40.922 202.754 39.713 202.378 39.756 202.125 39.232 201.742 39.297 Z" fill="#1c99b6" fill-opacity="1" stroke="none"/>
 <g id="feather">
  <path id="path-4" d="M129.493 100.401 C118.449 122.037 124.098 155.341 89.998 190.001 70.863 209.451 49.147 221.911 40.492 213.602 26.59 200.253 40.851 174.265 63 156 83.599 139.014 120.757 124.167 129.493 100.401 Z" fill="#98bf06" fill-opacity="1" stroke="#1c99b6" stroke-width="5" stroke-opacity="1" stroke-linejoin="round"/>
  <path id="path-5" d="M24 229 C46.164 201.079 38.237 209.979 46 201 52.013 194.045 58.175 187.163 65 181 65.504 180.545 66.015 180.099 66.533 179.66 L53.385 194.914 C53.865 194.936 53.833 194.933 54.723 194.973 56.655 195.059 58.589 195.288 60.523 195.658 62.457 196.029 63.999 196.339 65.148 196.588 65.626 196.692 66.091 196.79 66.551 196.887 L53.27 195.047 24 229 Z M66.551 196.887 L77.729 198.436 75.682 198.258 C74.316 198.14 73.202 198.037 72.344 197.949 71.485 197.862 70.881 197.78 70.529 197.707 70.177 197.635 69.479 197.491 68.438 197.279 67.829 197.156 67.196 197.023 66.551 196.887 Z M66.533 179.66 L83.754 159.684 C83.693 159.508 83.635 159.343 83.553 159.1 83.314 158.399 83.119 157.648 82.967 156.85 82.815 156.051 82.724 155.227 82.695 154.379 82.666 153.531 82.64 152.306 82.617 150.703 82.594 149.101 82.582 147.578 82.582 146.135 82.582 144.692 82.582 143.963 82.582 143.949 L82.582 143.93 85.088 158.137 117.424 120.627 C114.374 126.746 112.977 134.481 109 140 102.654 148.804 94.989 156.656 87 164 80.677 169.813 73.085 174.118 66.533 179.66 Z M117.424 120.627 C118.989 117.487 120.99 114.771 124 113 L117.424 120.627 Z M59.063 183.668 L58.482 182.861 C58.096 182.324 57.768 181.809 57.498 181.318 57.228 180.827 57.063 180.511 57.002 180.367 56.941 180.224 56.791 179.801 56.553 179.1 56.314 178.399 56.118 177.648 55.967 176.85 55.815 176.051 55.724 175.227 55.695 174.379 55.666 173.531 55.64 172.306 55.617 170.703 55.594 169.101 55.582 167.578 55.582 166.135 55.582 164.692 55.582 163.963 55.582 163.949 L55.582 163.93 59.063 183.668 Z M104.729 175.436 L102.682 175.258 C101.316 175.14 100.202 175.037 99.344 174.949 98.485 174.862 97.881 174.78 97.529 174.707 97.177 174.635 96.479 174.491 95.438 174.279 94.829 174.156 94.196 174.023 93.551 173.887 L104.729 175.436 Z M93.551 173.887 L78.805 171.844 78.814 171.844 C78.82 171.844 79.79 171.887 81.723 171.973 83.655 172.059 85.589 172.288 87.523 172.658 89.457 173.029 90.999 173.339 92.148 173.588 92.626 173.692 93.091 173.79 93.551 173.887 Z" fill="none" stroke="#1c99b6" stroke-width="3" stroke-opacity="1" stroke-linejoin="round"/>
 </g>
</svg>
